<svg fill="none" height="24" viewBox="0 0 24 24" width="24" xmlns="http://www.w3.org/2000/svg"><path d="m9.22957 22.7501c-.01001 0-.02001 0-.04001 0-1.68-.01-2.88-1.52-3.73-2.83-2.17-3.33-2.61-7.52-1.04-9.95003 1.05-1.63 2.75-2.64002 4.43-2.64002.87 0 1.55004.24002 2.15004.46002.48.17.89.31998 1.32.31998.38 0 .71-.12998 1.13-.28998.58-.22 1.29-.49002 2.32-.49002 1.48 0 3 .79001 4.06 2.13001.14.17.19.40001.15.61004-.04.22-.18.4-.37.51-1.13.62-1.75 1.75-1.66 3.03.09 1.3.89 2.4 2.09 2.85.19.07.35.22.43.41s.08.41-.01.59c-.44.98-.66 1.43-1.23 2.31-.95 1.46-2.15 2.96-3.79 2.98-.71 0-1.19-.21-1.61-.41-.42-.19-.83-.34-1.48-.36-.7 0-1.07.17-1.5.36-.44.2-.92004.41-1.62003.41zm-.38001-13.92005c-1.18 0-2.39.75001-3.17 1.95005-1.06 1.64-1.05 5.11 1.04 8.32.65 1 1.52 2.14 2.49 2.15.36-.01.63-.11 1.00004-.27.49-.22 1.1-.49 2.11-.5.99-.02 1.63.27 2.12.5.36.17.6.28.97.27.94-.01 1.85-1.23 2.55-2.29.37-.57.58-.93.81-1.44-1.34-.79-2.22-2.18-2.33-3.8-.11-1.53.51-2.96 1.65-3.91004-.7-.62-1.53-.97-2.33-.97-.75 0-1.25.19002-1.78.39002-.5.19-1.02.38998-1.67.38998-.69 0-1.26-.20999-1.82-.39999-.53004-.21-1.04004-.39002-1.64004-.39002zm2.97004-1.69998c-.03 0-.07 0-.1 0-.35-.01-.65-.27-.71-.62-.21-1.13.19-2.43002 1.06-3.49002.8-.97 2.12-1.68999 3.29-1.76999.41-.02.74.25002.79.64002.17 1.17-.2 2.44999-1.03 3.51999-.81 1.05-2.1 1.72-3.3 1.72zm2.83-4.17999c-.54.22-1.07.58999-1.42 1.01999-.33.4-.64.96-.74 1.54.54-.18 1.08-.54001 1.45-1.02001.2-.25.58-.82998.71-1.53998z" fill="#000"/></svg>