<svg fill="none" height="24" viewBox="0 0 24 24" width="24" xmlns="http://www.w3.org/2000/svg"><g stroke="#141b34" stroke-linecap="round" stroke-width="1.5"><path d="m20 14v-4c0-3.77124 0-5.65685-1.1027-6.82843-1.1026-1.17157-2.8773-1.17157-6.4267-1.17157h-.9412c-3.54939 0-5.32409 0-6.42674 1.17157-1.10266 1.17158-1.10266 3.05719-1.10266 6.82843v4c0 3.7712 0 5.6569 1.10266 6.8284 1.10265 1.1716 2.87735 1.1716 6.42674 1.1716h.9412c3.5494 0 5.3241 0 6.4267-1.1716 1.1027-1.1715 1.1027-3.0572 1.1027-6.8284z"/><path d="m8.80059 12.6645c.81568.8246 1.94791 1.3355 3.19941 1.3355 2.4853 0 4.5-2.0147 4.5-4.5 0-2.48528-2.0147-4.5-4.5-4.5-2.48528 0-4.5 2.01472-4.5 4.5 0 1.2337.4965 2.3515 1.30059 3.1645zm0 0 3.19941-3.19946"/><path d="m10 19h4" stroke-linejoin="round"/></g></svg>