<svg enable-background="new 0 0 76.00 76.00" height="76" viewBox="0 0 76 76" width="76" xmlns="http://www.w3.org/2000/svg"><path d="m23.75 19.7917s1.5833-3.1667 9.5-3.1667c3.8723 0 6.1662 1.3153 8.1685 2.8737l-4.5217 15.5911c-2.1566-1.4501-4.3669-2.6315-6.8135-2.6315-6.3333 0-9.5 1.5834-9.5 1.5834zm28.5 4.75c7.9167 0 9.5-3.1667 9.5-3.1667l-4.75 15.8333s-3.1667 3.1667-9.5 3.1667c-2.8867 0-5.4445-1.6447-7.9732-3.4348l4.4524-15.3522c2.0267 1.593 4.3324 2.9537 8.2708 2.9537zm-33.25 14.25s1.5833-3.1667 9.5-3.1667c3.4766 0 5.681 1.0603 7.5442 2.4048l-4.536 15.6404c-1.9554-1.2516-3.9691-2.2119-6.1749-2.2119-6.3333 0-9.5 1.5834-9.5 1.5834zm28.5 4.75c7.9167 0 9.5-3.1667 9.5-3.1667l-4.75 15.8333s-3.1667 3.1667-9.5 3.1667c-3.1267 0-5.8675-1.9295-8.6034-3.8834l4.4663-15.4c2.1872 1.796 4.5447 3.4501 8.8871 3.4501z" stroke-linejoin="round" stroke-width=".2"/></svg>