<svg viewBox="0 0 24 24" xmlns="http://www.w3.org/2000/svg"><path d="m23 9a1 1 0 0 0 1-1v-3a1 1 0 0 0 -1-1h-22a1 1 0 0 0 -1 1v3a1 1 0 0 0 1 1 1 1 0 0 1 0 2 1 1 0 0 0 -1 1v7a1 1 0 0 0 1 1h13a1 1 0 0 0 1-1v-3h2v3a1 1 0 0 0 1 1h5a1 1 0 0 0 1-1v-7a1 1 0 0 0 -1-1 1 1 0 0 1 0-2zm-21 7h3v2h-3zm7 0v2h-2v-2zm4 2h-2v-2h2zm6 0v-2h3v2zm3-10.83a3 3 0 0 0 0 5.66v1.17h-20v-1.17a3 3 0 0 0 0-5.66v-1.17h20z"/><path d="m9 11v-2a1 1 0 0 0 -2 0v2a1 1 0 0 0 2 0z"/><path d="m13 11v-2a1 1 0 0 0 -2 0v2a1 1 0 0 0 2 0z"/><path d="m17 11v-2a1 1 0 0 0 -2 0v2a1 1 0 0 0 2 0z"/></svg>