<svg viewBox="0 0 72 72" xmlns="http://www.w3.org/2000/svg"><path d="m34 16.1628h1c0-.2933-.1287-.5718-.3522-.7618-.2234-.19-.519-.2723-.8085-.2252zm-19 3.093-.1607-.987c-.4839.0788-.8393.4967-.8393.987zm0 14.7442h-1c0 .5523.4477 1 1 1zm19 0v1c.5523 0 1-.4477 1-1zm-19 4v-1c-.5523 0-1 .4477-1 1zm0 14.7442h-1c0 .4902.3554.9082.8393.987zm19 3.093-.1607.987c.2895.0471.5851-.0352.8085-.2252.2235-.19.3522-.4685.3522-.7618zm0-17.8372h1c0-.5523-.4477-1-1-1zm4 18.4884h-1c0 .4902.3554.9082.8393.987zm22 3.5814-.1607.987c.2895.0471.5851-.0352.8085-.2252s.3522-.4685.3522-.7618zm0-22.0698h1c0-.5523-.4477-1-1-1zm-22 0v-1c-.5523 0-1 .4477-1 1zm22-4v1c.5523 0 1-.4477 1-1zm-22 0h-1c0 .5523.4477 1 1 1zm0-18.4884-.1607-.987c-.4839.0788-.8393.4968-.8393.987zm22-3.5814h1c0-.2933-.1288-.5718-.3522-.7618s-.519-.2723-.8085-.2252zm-26.1607 3.2456-19 3.093.3214 1.974 19-3.093zm-19.8393 4.08v14.7442h2v-14.7442zm20 13.7442h-19v2h19zm-1-16.8372v17.8372h2v-17.8372zm-19 21.8372v14.7442h2v-14.7442zm.8393 15.7312 19 3.093.3214-1.974-19-3.093zm18.1607-15.7312v17.8372h2v-17.8372zm-18 1h19v-2h-19zm22.8393 18.4754 22 3.5814.3214-1.974-22-3.5814zm23.1607 2.5944v-22.0698h-2v22.0698zm-23-21.0698h22v-2h-22zm1 17.4884v-18.4884h-2v18.4884zm21-23.4884h-22v2h22zm-21 1v-18.4884h-2v18.4884zm20.8393-23.0568-22 3.5814.3214 1.974 22-3.5814zm1.1607 23.0568v-22.0698h-2v22.0698z"/></svg>